<svg xmlns="http://www.w3.org/2000/svg" width="124" height="124" viewBox="0 0 124 124">
  <g id="Group_29286" data-name="Group 29286" transform="translate(-44 -8557)">
    <rect id="Rectangle_9867" data-name="Rectangle 9867" width="124" height="124" rx="26" transform="translate(44 8557)" fill="#202226"/>
    <path id="Path_19614" data-name="Path 19614" d="M44.629-45.117a12.556,12.556,0,0,1,8.887-3.711H73a.429.429,0,0,1,.317.122.429.429,0,0,1,.122.317v48a.373.373,0,0,1-.122.269A.429.429,0,0,1,73,0H64.063a.373.373,0,0,1-.269-.122.373.373,0,0,1-.122-.269V-40.43H55.518a4.1,4.1,0,0,0-2.93,1.221L13.232-.1a.525.525,0,0,1-.293.1H.488A.38.38,0,0,1,.1-.244.379.379,0,0,1,.2-.684Z" transform="translate(62 8643)" fill="#fff"/>
  </g>
</svg>
