<svg width="490" height="490" viewBox="0 0 490 490" fill="none" xmlns="http://www.w3.org/2000/svg">
<circle cx="245" cy="245" r="245" fill="black"/>
<path d="M402.633 222H312.419C308.978 222 305.662 223.347 303.124 225.771L251.278 275.339C250.367 276.212 249.169 276.695 247.927 276.695H242.091C240.849 276.695 239.66 276.212 238.739 275.339L186.894 225.771C184.365 223.347 181.04 222 177.599 222H87.3853C86.6167 222 86 222.641 86 223.44V231.884C86 232.683 86.6167 233.324 87.3853 233.324H173.997C175.239 233.324 176.428 233.807 177.349 234.68L230.177 285.176C232.081 286.997 234.575 288 237.157 288H252.843C255.434 288 257.919 286.997 259.823 285.176L312.651 234.68C313.563 233.807 314.761 233.324 316.003 233.324H402.615C403.383 233.324 404 232.683 404 231.884V223.44C404 222.641 403.383 222 402.615 222H402.633Z" fill="white"/>
</svg>
