<svg width="120" height="120" viewBox="0 0 120 120" fill="none" xmlns="http://www.w3.org/2000/svg">
<path d="M118.205 74.5143C110.192 106.657 77.6358 126.219 45.4888 118.204C13.3553 110.19 -6.20637 77.6324 1.81058 45.4918C9.8205 13.3451 42.3763 -6.21803 74.5133 1.79541C106.658 9.80884 126.219 42.3702 118.204 74.5149L118.205 74.5143H118.205Z" fill="#DD7362"/>
<path fill-rule="evenodd" clip-rule="evenodd" d="M86.4643 51.4517C87.6585 43.467 81.5795 39.1749 73.2669 36.3117L75.9636 25.4957L69.3796 23.8551L66.7545 34.3863C65.0236 33.9546 63.246 33.5479 61.4794 33.1446L64.1235 22.5439L57.5436 20.9033L54.8455 31.7158C53.4131 31.3896 52.0063 31.0673 50.6414 30.7277L50.649 30.6937L41.5695 28.4264L39.8181 35.4585C39.8181 35.4585 44.7029 36.5783 44.5999 36.6472C47.2661 37.3126 47.7483 39.0775 47.6682 40.4765L44.5964 52.7984C44.78 52.845 45.0182 52.9125 45.2809 53.0181L45.0899 52.9704L45.0898 52.9703C44.9273 52.9297 44.7584 52.8874 44.585 52.8459L40.2794 70.1072C39.9536 70.9172 39.1266 72.1328 37.2625 71.6712C37.3285 71.7668 32.4772 70.477 32.4772 70.477L29.2083 78.0135L37.7763 80.1495C38.7145 80.3848 39.6417 80.6264 40.5594 80.8657L40.5612 80.8662C41.2021 81.0332 41.8383 81.1991 42.4705 81.3607L39.746 92.3007L46.3223 93.9413L49.0205 83.1174C50.8171 83.6051 52.5606 84.055 54.2674 84.4791L51.5784 95.2519L58.1627 96.8925L60.8869 85.973C72.1141 88.0978 80.556 87.2411 84.1093 77.0862C86.9725 68.9103 83.9668 64.1945 78.0602 61.1192C82.3623 60.127 85.6027 57.2975 86.4666 51.4526L86.4646 51.4511L86.4643 51.4517ZM71.4214 72.5457C69.5546 80.0469 57.8132 76.9457 52.4412 75.5268C51.9579 75.3992 51.5262 75.2852 51.1579 75.1937L54.7733 60.7001C55.2222 60.8122 55.7708 60.9353 56.3922 61.0747L56.3923 61.0747C61.9491 62.3218 73.334 64.8768 71.4217 72.5457H71.4214ZM57.5069 54.348C61.9857 55.5433 71.756 58.1508 73.4576 51.3332H73.4582C75.1957 44.3605 65.7005 42.2583 61.0631 41.2316C60.5414 41.1161 60.0812 41.0142 59.7053 40.9205L56.4274 54.0653C56.7369 54.1425 57.1001 54.2394 57.5069 54.348Z" fill="white"/>
</svg>
