<svg width="120" height="120" viewBox="0 0 120 120" fill="none" xmlns="http://www.w3.org/2000/svg">
<circle cx="60" cy="60" r="60" fill="#DD7362"/>
<path d="M77.8008 29.8195C76.3541 28.9196 74.8342 28.1262 73.2522 27.4502L60.0295 40.6559L77.7536 58.3692L90.9991 45.1406C90.3502 43.6348 89.5947 42.1857 88.742 40.8028L77.8008 40.8028V29.8195Z" fill="white"/>
<path d="M88.7439 76.1236C89.5962 74.741 90.3514 73.2922 91 71.7868L77.7534 58.5571L60.0763 76.2234L73.3201 89.4502C74.8435 88.7952 76.3091 88.0313 77.7068 87.1682V76.1236L88.7439 76.1236Z" fill="white"/>
<path d="M42.1992 29.8195C43.6459 28.9196 45.1658 28.1262 46.7478 27.4502L59.9705 40.6559L42.2464 58.3692L29.0009 45.1406C29.6498 43.6348 30.4053 42.1857 31.258 40.8028L42.1992 40.8028V29.8195Z" fill="white"/>
<path d="M31.2561 76.1236C30.4038 74.741 29.6486 73.2922 29 71.7868L42.2467 58.5571L59.9237 76.2234L46.6799 89.4502C45.1565 88.7952 43.6909 88.0313 42.2932 87.1682V76.1236L31.2561 76.1236Z" fill="white"/>
</svg>
