<svg width="125" height="125" viewBox="0 0 125 125" fill="none" xmlns="http://www.w3.org/2000/svg">
<g clip-path="url(#clip0_2106_2141)">
<mask id="mask0_2106_2141" style="mask-type:luminance" maskUnits="userSpaceOnUse" x="0" y="0" width="125" height="125">
<path d="M124.395 0.209961H0.445312V124.159H124.395V0.209961Z" fill="white"/>
</mask>
<g mask="url(#mask0_2106_2141)">
<path d="M62.4199 0.209961C28.2431 0.209961 0.445312 28.0078 0.445312 62.1845C0.445312 96.3616 28.2431 124.16 62.4199 124.16C96.5966 124.16 124.395 96.3616 124.395 62.1845C124.395 28.0078 96.5966 0.209961 62.4199 0.209961ZM62.4199 113.931C33.8797 113.931 10.6736 90.725 10.6736 62.1845C10.6736 33.6444 33.8797 10.4382 62.4199 10.4382C90.96 10.4382 114.166 33.6444 114.166 62.1845C114.166 90.725 90.96 113.931 62.4199 113.931Z" fill="#133348"/>
<path d="M62.4231 116.413C92.3723 116.413 116.651 92.134 116.651 62.1848C116.651 32.2356 92.3723 7.95703 62.4231 7.95703C32.4739 7.95703 8.19531 32.2356 8.19531 62.1848C8.19531 92.134 32.4739 116.413 62.4231 116.413Z" fill="white"/>
<path d="M62.4217 111.017C89.3907 111.017 111.253 89.1544 111.253 62.1853C111.253 35.2163 89.3907 13.3535 62.4217 13.3535C35.4526 13.3535 13.5898 35.2163 13.5898 62.1853C13.5898 89.1544 35.4526 111.017 62.4217 111.017Z" fill="#133348"/>
<path d="M87.0808 56.1146C88.1138 49.603 82.8599 46.1018 75.6821 43.7658L78.0112 34.9427L72.3266 33.6069L70.0567 42.1966C68.5632 41.8426 67.0304 41.5134 65.5008 41.1841L67.7869 32.5382L62.1023 31.1992L59.7732 40.019C58.5364 39.7518 57.3194 39.4907 56.1415 39.2114L56.1481 39.1831L48.3056 37.3349L46.7926 43.0697C46.7926 43.0697 51.0131 43.9831 50.9244 44.0388C53.2272 44.5827 53.6416 46.0209 53.5723 47.1643L50.9209 57.2143C51.079 57.2514 51.2827 57.3076 51.5132 57.3913L50.9112 57.2514L47.1939 71.3309C46.9108 71.9894 46.1969 72.9806 44.5852 72.6045C44.6444 72.6823 40.4534 71.6323 40.4534 71.6323L37.6309 77.7774L45.0326 79.5201C46.4076 79.8462 47.7563 80.1879 49.0822 80.5082L46.7299 89.4302L52.411 90.7661L54.7401 81.9433C56.293 82.338 57.7997 82.7044 59.2736 83.0522L56.9511 91.8379L62.6353 93.1739L64.9876 84.27C74.6855 86.0038 81.9752 85.3046 85.0445 77.0225C87.5181 70.3556 84.9225 66.5062 79.8205 63.9993C83.5378 63.1917 86.334 60.8832 87.0808 56.1146ZM74.0866 73.3191C72.3331 79.9891 60.4414 76.3822 56.5858 75.4782L59.7109 63.6577C63.5665 64.5679 75.9253 66.3664 74.0866 73.3191ZM75.8467 56.0181C74.2447 62.0855 64.3493 59.0007 61.1421 58.2457L63.9708 47.5276C67.1784 48.2826 77.5177 49.6902 75.8467 56.0181Z" fill="white"/>
</g>
</g>
<defs>
<clipPath id="clip0_2106_2141">
<rect width="123.949" height="123.949" fill="white" transform="translate(0.453125 0.21582)"/>
</clipPath>
</defs>
</svg>
