<svg width="120" height="120" viewBox="0 0 120 120" fill="none" xmlns="http://www.w3.org/2000/svg">
<circle cx="60" cy="60" r="60" fill="#DD7362"/>
<path fill-rule="evenodd" clip-rule="evenodd" d="M76.2072 54.0286L76.2059 54.0316C79.0216 57.7147 80.7045 62.3796 80.7045 67.4535C80.7045 72.6028 78.9713 77.331 76.0795 81.0391L75.8307 81.3584L75.7646 80.9527C75.7083 80.6075 75.6425 80.2591 75.5658 79.908C74.1185 73.2748 69.4033 67.5869 61.6428 62.9814C56.4022 59.8799 53.4024 56.1452 52.6149 51.9022C52.1062 49.1584 52.4844 46.4024 53.2152 44.0418C53.9457 41.682 55.0326 39.7049 55.9559 38.5146L58.9753 34.663C59.5047 33.9877 60.4955 33.9877 61.0249 34.663L76.2072 54.0286ZM80.9822 50.1811L60.7479 24.3696C60.3617 23.8768 59.6383 23.8768 59.2521 24.3696L39.0172 50.1799L38.9519 50.2666C35.2283 55.0867 33 61.2122 33 67.8803C33 83.4101 45.0881 96 60 96C74.9121 96 87 83.4101 87 67.8803C87 61.2122 84.7717 55.0867 81.0482 50.2666L80.9822 50.1811ZM43.8588 53.9453L45.6695 51.6357L45.7242 52.0617C45.7675 52.3995 45.82 52.7388 45.8824 53.0796C47.0534 59.4892 51.2368 64.8336 58.2309 68.9728C64.3105 72.5824 67.8503 76.733 68.8701 81.2853C69.2956 83.1851 69.3716 85.0542 69.1873 86.6884L69.176 86.7897L69.0882 86.8343C66.3442 88.2327 63.2597 89.0175 59.9993 89.0175C48.5646 89.0175 39.2944 79.3633 39.2944 67.4535C39.2944 62.3401 41.0033 57.6416 43.8588 53.9453Z" fill="white"/>
</svg>
