<svg width="120" height="120" viewBox="0 0 120 120" fill="none" xmlns="http://www.w3.org/2000/svg">
<g clip-path="url(#clip0_1955_10777)">
<circle cx="60" cy="60" r="60" fill="#DD7362"/>
<path d="M56.9442 61.9798C57.3254 62.0749 57.791 62.1801 58.3185 62.2985C63.0377 63.3575 72.7069 65.5273 71.0831 72.0401C69.4977 78.4105 59.5261 75.7772 54.9636 74.5721C54.5534 74.4637 54.1861 74.3665 53.8734 74.2889L56.9442 61.9798Z" fill="white"/>
<path d="M61.1319 45.182C61.4511 45.2616 61.8422 45.3485 62.2852 45.4466C66.2236 46.3185 74.288 48.1036 72.8125 54.0252C71.3674 59.8152 63.0686 57.6007 59.2649 56.5856C58.9197 56.4934 58.6114 56.4114 58.3487 56.3459L61.1319 45.182Z" fill="white"/>
<path fill-rule="evenodd" clip-rule="evenodd" d="M100 100H20V20H100V100ZM57.0055 37.3642C55.7891 37.0872 54.594 36.8136 53.4348 36.5252L53.4411 36.4968L45.7306 34.5712L44.2427 40.5433C44.2427 40.5433 48.3909 41.4942 48.3034 41.5527C50.5677 42.1179 50.9779 43.6166 50.91 44.8047L48.3008 55.2699C48.4567 55.3095 48.6591 55.3667 48.8823 55.4563L48.7198 55.4155L48.291 55.3098L44.6342 69.9689C44.3575 70.6569 43.6552 71.69 42.0721 71.2979C42.1254 71.378 38.0504 70.2943 38.0087 70.2832L35.2326 76.6841L42.5089 78.4979C43.3056 78.6977 44.0929 78.9029 44.8722 79.106C45.4168 79.248 45.9577 79.3894 46.495 79.5268L44.1815 88.8175L49.7665 90.2113L52.0579 81.0183C53.5837 81.4325 55.065 81.8149 56.5146 82.1751L54.2303 91.3246L59.8224 92.7175L62.136 83.4437C71.6709 85.2482 78.8404 84.5208 81.8581 75.8967C84.2898 68.9531 81.7368 64.9475 76.7205 62.3358C80.3741 61.4932 83.1263 59.0904 83.8601 54.1264L83.8583 54.1255L83.9009 53.8104C84.7105 47.231 79.5994 43.6615 72.65 41.2678L74.9405 32.0819L69.3484 30.6889L67.1191 39.6325C65.6492 39.2658 64.1397 38.9202 62.6394 38.5778L64.8846 29.5748L59.2969 28.1818L57.0055 37.3642Z" fill="white"/>
</g>
<defs>
<clipPath id="clip0_1955_10777">
<rect width="120" height="120" rx="60" fill="white"/>
</clipPath>
</defs>
</svg>
